<svg viewBox="0 0 200 200" xmlns="http://www.w3.org/2000/svg">
  <!-- Discord logo in red -->
  <path fill="#cf1b22" d="M168.5 15H31.5C21.3 15 13 23.3 13 33.5v130c0 10.2 8.3 18.5 18.5 18.5h113l-5.3-18.5 12.8 11.8 12.1 11l21.5 19v-147c0-10.2-8.3-18.5-18.5-18.5zM122 127.5c0 0-3.6-4.3-6.6-8.1 13.1-3.7 18.1-11.9 18.1-11.9-4.1 2.7-8 4.6-11.5 5.9-5 2.1-9.8 3.5-14.4 4.3-9.6 1.8-18.4 1.3-25.9-0.2-5.6-1.1-10.4-2.7-14.4-4.3-2.3-0.9-4.8-2-7.4-3.5-0.3-0.2-0.6-0.3-0.9-0.5-0.2-0.1-0.4-0.3-0.6-0.4-2.7-1.5-4.2-2.6-4.2-2.6s4.8 8 17.5 11.8c-3 3.8-6.7 8.3-6.7 8.3-22.1-0.7-30.5-15.2-30.5-15.2 0-32.2 14.4-58.3 14.4-58.3 14.4-10.8 28.1-10.5 28.1-10.5l1 1.2C90.2 58 84.5 59.9 84.5 59.9c10.4-7.2 18.3-9.2 24.3-9.7 1.1-0.2 2.1-0.3 3.2-0.3 8.3 0 17.2 2.5 26.6 7.7 0 0-5.4-1.7-14.4-3.5l1.4-1.6s13.7-0.3 28.1 10.5c0 0 14.4 26.1 14.4 58.3 0 0-8.5 14.5-30.5 15.2zm-55.7-42c-5.5 0-9.9 4.8-9.9 10.7 0 5.9 4.4 10.7 9.9 10.7 5.5 0 9.9-4.8 9.9-10.7 0.1-5.9-4.4-10.7-9.9-10.7zm41.1 0c-5.5 0-9.9 4.8-9.9 10.7 0 5.9 4.4 10.7 9.9 10.7 5.5 0 9.9-4.8 9.9-10.7-4.4-5.9-4.4-10.7-9.9-10.7z"/>
</svg>
