<svg viewBox="0 0 245 240" xmlns="http://www.w3.org/2000/svg">
  <defs>
    <style>
      .discord { fill: #cf1b22; }
      .discord-white { fill: #ffffff; }
    </style>
  </defs>

  <!-- Main body -->
  <path class="discord" d="M205.6 29.6c-11.2-5.2-23.6-9.2-37-11.6-1.6 0-3.2 0.8-4 2.4-1.6 2.8-3.2 6.8-4.4 10.4-13.2-2-26.8-2-40 0-1.2-3.6-2.8-7.6-4.4-10.4-0.8-1.6-2.4-2.4-4-2.4-13.2 2.4-25.6 6.4-37 11.6-26 38.4-33.2 76-29.6 112.8 0 0.8 0.4 1.6 1.2 2.4 20.8 15.2 41.2 24.4 61.2 30.4 1.6 0.4 3.2 0 4.4-1.2 3.6-4.8 6.8-10 9.6-15.2 2.8 0.4 5.6 0.8 8.4 0.8 2.8 0 5.6-0.4 8.4-0.8 2.8 5.2 6 10.4 9.6 15.2 1.2 1.2 2.8 1.6 4.4 1.2 20-6 40.4-15.2 61.2-30.4 0.8-0.8 1.2-1.6 1.2-2.4 4-40 -3.2-78.8 -29.2-112.8z"/>

  <!-- Left eye -->
  <circle class="discord-white" cx="80" cy="100" r="18"/>

  <!-- Right eye -->
  <circle class="discord-white" cx="160" cy="100" r="18"/>

  <!-- Mouth -->
  <path class="discord-white" d="M190 130c0 0-20 24-70 24s-70-24-70-24" stroke="#ffffff" stroke-width="16" fill="none" stroke-linecap="round"/>
</svg>
