<svg viewBox="0 0 245 240" xmlns="http://www.w3.org/2000/svg">
  <!-- Red Discord Logo -->
  <!-- Main rounded blob shape -->
  <path fill="#cf1b22" d="M104.14 0C47.881 0 0 46.81 0 104.14v127.34c0 5.871 4.762 10.52 10.52 10.52h211.38c5.871 0 10.52-4.762 10.52-10.52V104.14C242 46.81 197.12 0 104.14 0z"/>

  <!-- Top notches/ears -->
  <path fill="#cf1b22" d="M37.38 0h22.4v22.4h-22.4z"/>
  <path fill="#cf1b22" d="M185.22 0h22.4v22.4h-22.4z"/>

  <!-- Left eye -->
  <circle fill="#ffffff" cx="62.6" cy="68.74" r="15.96"/>

  <!-- Right eye -->
  <circle fill="#ffffff" cx="179.36" cy="68.74" r="15.96"/>

  <!-- Smile -->
  <path fill="#ffffff" d="M180.96 136.54c-19.84 14.88-51.52 16.48-67.76 16.48-16.24 0-47.68-1.36-67.76-16.48-3.44-2.56-8.96-0.56-8.96 4.16v27.52c0 17.92 14.56 32.48 32.48 32.48h89.44c17.92 0 32.48-14.56 32.48-32.48v-27.52c0-4.72-5.52-6.72-8.96-4.16z"/>
</svg>
